<svg xmlns="http://www.w3.org/2000/svg" width="663.84" height="1058.16" viewBox="0 0 663.84 1058.16"><rect width="100%" height="100%" fill="#1a1a2e"/><path d="M 414.84 1038.16 L 643.84 918.52 L 620.48 732.96 L 468.6 425.32000000000005 L 513 393.56000000000006 L 349.44 20 L 20 188.48000000000002 Z" fill="none" stroke="#fff" stroke-width="2"/><rect x="230.51999999999998" y="349.78" width="52.24" height="34.84" fill="#9E9E9E" fill-opacity="0.7" stroke="#9E9E9E" stroke-width="1"/><text x="256.64" y="367.2" font-size="10" fill="white" text-anchor="middle" dominant-baseline="middle">Lobby</text><rect x="309.53999999999996" y="369.46000000000004" width="31.32" height="26.12" fill="#FF9800" fill-opacity="0.7" stroke="#FF9800" stroke-width="1"/><text x="325.2" y="382.52000000000004" font-size="7.83" fill="white" text-anchor="middle" dominant-baseline="middle">Leasing</text><rect x="211.1" y="419.0400000000001" width="26.12" height="20.88" fill="#FF9800" fill-opacity="0.7" stroke="#FF9800" stroke-width="1"/><text x="224.16" y="429.4800000000001" font-size="6.53" fill="white" text-anchor="middle" dominant-baseline="middle">Mail/Pac</text><rect x="258.44" y="521.2" width="52.24" height="43.52" fill="#2196F3" fill-opacity="0.7" stroke="#2196F3" stroke-width="1"/><text x="284.56" y="542.96" font-size="10" fill="white" text-anchor="middle" dominant-baseline="middle">Lounge</text><rect x="338.56" y="655.5" width="43.52" height="34.84" fill="#2196F3" fill-opacity="0.7" stroke="#2196F3" stroke-width="1"/><text x="360.32" y="672.92" font-size="10" fill="white" text-anchor="middle" dominant-baseline="middle">Fitness</text><rect x="404.92" y="567.8600000000001" width="20.88" height="17.4" fill="#FF9800" fill-opacity="0.7" stroke="#FF9800" stroke-width="1"/><text x="415.36" y="576.5600000000002" font-size="5.22" fill="white" text-anchor="middle" dominant-baseline="middle">Restroom</text><rect x="432" y="626.0600000000001" width="20.88" height="17.4" fill="#FF9800" fill-opacity="0.7" stroke="#FF9800" stroke-width="1"/><text x="442.44" y="634.7600000000001" font-size="5.22" fill="white" text-anchor="middle" dominant-baseline="middle">Restroom</text><rect x="364.3" y="494.9200000000001" width="17.4" height="13.92" fill="#FF9800" fill-opacity="0.7" stroke="#FF9800" stroke-width="1"/><text x="373" y="501.88000000000005" font-size="4.35" fill="white" text-anchor="middle" dominant-baseline="middle">Trash</text><rect x="424.1" y="666.7" width="34.84" height="31.32" fill="#FF9800" fill-opacity="0.7" stroke="#FF9800" stroke-width="1"/><text x="441.52000000000004" y="682.36" font-size="8.71" fill="white" text-anchor="middle" dominant-baseline="middle">Bike Sto</text><text x="10" y="15" font-size="12" fill="white">Floor 0 (GROUND)</text></svg>