<svg xmlns="http://www.w3.org/2000/svg" width="663.84" height="1058.16" viewBox="0 0 663.84 1058.16"><rect width="100%" height="100%" fill="#1a1a2e"/><path d="M 414.84 1038.16 L 643.84 918.52 L 620.48 732.96 L 468.6 425.32000000000005 L 513 393.56000000000006 L 349.44 20 L 20 188.48000000000002 Z" fill="none" stroke="#fff" stroke-width="2"/><polygon points="498.24,915.52 566.84,883.6800000000001 519.9200000000001,782.72 451.32,814.6000000000001" fill="#4CAF50" fill-opacity="0.7" stroke="#4CAF50" stroke-width="1"/><text x="509.08" y="849.1300000000001" font-size="10" fill="white" text-anchor="middle" dominant-baseline="middle">Studio 1</text><polygon points="566.84,883.6800000000001 635.44,851.8000000000001 588.52,750.8800000000001 519.9200000000001,782.72" fill="#4CAF50" fill-opacity="0.7" stroke="#4CAF50" stroke-width="1"/><text x="577.68" y="817.27" font-size="10" fill="white" text-anchor="middle" dominant-baseline="middle">1BR 2</text><polygon points="581.8,736.3600000000001 520.36,604.2 419.44,651.1200000000001 480.88,783.24" fill="#4CAF50" fill-opacity="0.7" stroke="#4CAF50" stroke-width="1"/><text x="500.62" y="693.73" font-size="10" fill="white" text-anchor="middle" dominant-baseline="middle">2BR 3</text><polygon points="520.36,604.2 458.96,472.08000000000004 358.03999999999996,518.96 419.44,651.1200000000001" fill="#4CAF50" fill-opacity="0.7" stroke="#4CAF50" stroke-width="1"/><text x="439.2" y="561.59" font-size="10" fill="white" text-anchor="middle" dominant-baseline="middle">2BR 4</text><polygon points="458.96,472.08000000000004 397.56,339.96000000000004 296.64,386.84000000000003 358.03999999999996,518.96" fill="#4CAF50" fill-opacity="0.7" stroke="#4CAF50" stroke-width="1"/><text x="377.8" y="429.46000000000004" font-size="10" fill="white" text-anchor="middle" dominant-baseline="middle">2BR 5</text><polygon points="397.56,339.96000000000004 336.15999999999997,207.80000000000007 235.24,254.72000000000003 296.64,386.84000000000003" fill="#4CAF50" fill-opacity="0.7" stroke="#4CAF50" stroke-width="1"/><text x="316.4" y="297.33000000000004" font-size="10" fill="white" text-anchor="middle" dominant-baseline="middle">3BR 6</text><polygon points="336.15999999999997,207.80000000000007 274.76,75.68000000000006 173.83999999999997,122.56000000000006 235.24,254.72000000000003" fill="#4CAF50" fill-opacity="0.7" stroke="#4CAF50" stroke-width="1"/><text x="255" y="165.19000000000005" font-size="10" fill="white" text-anchor="middle" dominant-baseline="middle">3BR 7</text><polygon points="159.32,129.32000000000005 90.71999999999997,161.20000000000005 137.64,262.1200000000001 206.24,230.24" fill="#4CAF50" fill-opacity="0.7" stroke="#4CAF50" stroke-width="1"/><text x="148.48000000000002" y="195.72000000000003" font-size="10" fill="white" text-anchor="middle" dominant-baseline="middle">Studio 8</text><polygon points="90.71999999999997,161.20000000000005 22.120000000000005,193.08000000000004 69.04000000000002,294 137.64,262.1200000000001" fill="#4CAF50" fill-opacity="0.7" stroke="#4CAF50" stroke-width="1"/><text x="79.88" y="227.60000000000014" font-size="10" fill="white" text-anchor="middle" dominant-baseline="middle">1BR 9</text><polygon points="75.75999999999999,308.48 137.15999999999997,440.6400000000001 238.12,393.72 176.68,261.60000000000014" fill="#4CAF50" fill-opacity="0.7" stroke="#4CAF50" stroke-width="1"/><text x="156.93" y="351.1100000000001" font-size="10" fill="white" text-anchor="middle" dominant-baseline="middle">2BR 10</text><polygon points="137.15999999999997,440.6400000000001 198.6,572.76 299.52,525.8800000000001 238.12,393.72" fill="#4CAF50" fill-opacity="0.7" stroke="#4CAF50" stroke-width="1"/><text x="218.35" y="483.25" font-size="10" fill="white" text-anchor="middle" dominant-baseline="middle">2BR 11</text><polygon points="198.6,572.76 260,704.9200000000001 360.92,658 299.52,525.8800000000001" fill="#4CAF50" fill-opacity="0.7" stroke="#4CAF50" stroke-width="1"/><text x="279.76" y="615.3900000000001" font-size="10" fill="white" text-anchor="middle" dominant-baseline="middle">2BR 12</text><polygon points="260,704.9200000000001 321.4,837.0400000000001 422.32,790.1600000000001 360.92,658" fill="#4CAF50" fill-opacity="0.7" stroke="#4CAF50" stroke-width="1"/><text x="341.15999999999997" y="747.5300000000001" font-size="10" fill="white" text-anchor="middle" dominant-baseline="middle">3BR 13</text><polygon points="321.4,837.0400000000001 382.8,969.1600000000001 483.72,922.28 422.32,790.1600000000001" fill="#4CAF50" fill-opacity="0.7" stroke="#4CAF50" stroke-width="1"/><text x="402.56" y="879.6600000000001" font-size="10" fill="white" text-anchor="middle" dominant-baseline="middle">3BR 14</text><polygon points="447.64,787.6800000000001 450.28,788.6400000000001 453.92,786.96 454.88,784.2800000000001 209.92,257.20000000000005 207.28,256.20000000000005 203.64,257.8800000000001 202.68,260.56000000000006" fill="#666" fill-opacity="0.7" stroke="#666" stroke-width="1"/><text x="328.78" y="522.4250000000001" font-size="10" fill="white" text-anchor="middle" dominant-baseline="middle">Core</text><polygon points="330.72,460.1600000000001 323.96,445.6400000000001 338.48,438.9200000000001 345.24,453.44000000000005" fill="#FF9800" fill-opacity="0.7" stroke="#FF9800" stroke-width="1"/><text x="334.6" y="449.5400000000001" font-size="5.32" fill="white" text-anchor="middle" dominant-baseline="middle">BOH</text><polygon points="325.15999999999997,581.0400000000001 335.28,602.84 320.76,609.5600000000001 310.64,587.8000000000001" fill="#9E9E9E" fill-opacity="0.7" stroke="#9E9E9E" stroke-width="1"/><text x="322.96" y="595.3100000000001" font-size="6.16" fill="white" text-anchor="middle" dominant-baseline="middle">Circ</text><text x="10" y="15" font-size="12" fill="white">Floor 1 (RESIDENTIAL_TYPICAL)</text></svg>