<svg xmlns="http://www.w3.org/2000/svg" width="697.52" height="767.36" viewBox="0 0 697.52 767.36"><rect width="100%" height="100%" fill="#1a1a2e"/><path d="M 22.599999999999966 25.399999999999977 L 20 747.36 L 674.9200000000001 744.6800000000001 L 677.52 20 Z" fill="none" stroke="#fff" stroke-width="2"/><rect x="186.56" y="376.32" width="40" height="30.4" fill="#9E9E9E" fill-opacity="0.7" stroke="#9E9E9E" stroke-width="1"/><text x="206.56" y="391.52" font-size="10" fill="white" text-anchor="middle" dominant-baseline="middle">Stair 1</text><rect x="234.56" y="376.12" width="40" height="30.4" fill="#9E9E9E" fill-opacity="0.7" stroke="#9E9E9E" stroke-width="1"/><text x="254.56" y="391.32" font-size="10" fill="white" text-anchor="middle" dominant-baseline="middle">Stair 2</text><rect x="282.56" y="375.92" width="40" height="30.4" fill="#9E9E9E" fill-opacity="0.7" stroke="#9E9E9E" stroke-width="1"/><text x="302.56" y="391.12" font-size="10" fill="white" text-anchor="middle" dominant-baseline="middle">Stair 3</text><rect x="330.56" y="376.12" width="29.68" height="29.68" fill="#9E9E9E" fill-opacity="0.7" stroke="#9E9E9E" stroke-width="1"/><text x="345.4" y="390.96" font-size="7.42" fill="white" text-anchor="middle" dominant-baseline="middle">Elevator</text><rect x="368.24" y="375.96000000000004" width="29.68" height="29.68" fill="#9E9E9E" fill-opacity="0.7" stroke="#9E9E9E" stroke-width="1"/><text x="383.08" y="390.8" font-size="7.42" fill="white" text-anchor="middle" dominant-baseline="middle">Elevator</text><rect x="405.88" y="375.8" width="29.68" height="29.68" fill="#9E9E9E" fill-opacity="0.7" stroke="#9E9E9E" stroke-width="1"/><text x="420.71999999999997" y="390.64" font-size="7.42" fill="white" text-anchor="middle" dominant-baseline="middle">Elevator</text><rect x="443.56" y="375.64" width="29.68" height="29.68" fill="#9E9E9E" fill-opacity="0.7" stroke="#9E9E9E" stroke-width="1"/><text x="458.4" y="390.47999999999996" font-size="7.42" fill="white" text-anchor="middle" dominant-baseline="middle">Elevator</text><rect x="481.24" y="375.48" width="29.68" height="29.68" fill="#9E9E9E" fill-opacity="0.7" stroke="#9E9E9E" stroke-width="1"/><text x="496.08" y="390.32" font-size="7.42" fill="white" text-anchor="middle" dominant-baseline="middle">Elevator</text><text x="10" y="15" font-size="12" fill="white">Floor 0 (GROUND)</text></svg>