<svg xmlns="http://www.w3.org/2000/svg" width="543.88" height="664.48" viewBox="0 0 543.88 664.48"><rect width="100%" height="100%" fill="#1a1a2e"/><path d="M 20 383.88 L 348.56 644.48 L 439.92 518.04 L 367.72 464.08 L 401.6 427.08 L 380.96000000000004 410.12 L 523.88 215.84000000000003 L 279.32 20 Z" fill="none" stroke="#fff" stroke-width="2"/><rect x="196.08" y="246.77999999999997" width="56.96" height="37.96" fill="#9E9E9E" fill-opacity="0.7" stroke="#9E9E9E" stroke-width="1"/><text x="224.56" y="265.76" font-size="10" fill="white" text-anchor="middle" dominant-baseline="middle">Lobby</text><rect x="270.36" y="190.44" width="34.16" height="28.48" fill="#FF9800" fill-opacity="0.7" stroke="#FF9800" stroke-width="1"/><text x="287.44" y="204.68" font-size="8.54" fill="white" text-anchor="middle" dominant-baseline="middle">Leasing</text><rect x="172.08" y="333.26" width="28.48" height="22.76" fill="#FF9800" fill-opacity="0.7" stroke="#FF9800" stroke-width="1"/><text x="186.32000000000002" y="344.64" font-size="7.12" fill="white" text-anchor="middle" dominant-baseline="middle">Mail/Pac</text><rect x="201.08" y="338.84000000000003" width="56.96" height="47.44" fill="#2196F3" fill-opacity="0.7" stroke="#2196F3" stroke-width="1"/><text x="229.56" y="362.56000000000006" font-size="10" fill="white" text-anchor="middle" dominant-baseline="middle">Lounge</text><rect x="261.56" y="357.22" width="47.44" height="37.96" fill="#2196F3" fill-opacity="0.7" stroke="#2196F3" stroke-width="1"/><text x="285.28" y="376.20000000000005" font-size="10" fill="white" text-anchor="middle" dominant-baseline="middle">Fitness</text><rect x="337.62" y="239.65999999999997" width="22.76" height="19" fill="#FF9800" fill-opacity="0.7" stroke="#FF9800" stroke-width="1"/><text x="349" y="249.15999999999997" font-size="5.69" fill="white" text-anchor="middle" dominant-baseline="middle">Restroom</text><rect x="356.06" y="253.01999999999998" width="22.76" height="19" fill="#FF9800" fill-opacity="0.7" stroke="#FF9800" stroke-width="1"/><text x="367.44" y="262.52" font-size="5.69" fill="white" text-anchor="middle" dominant-baseline="middle">Restroom</text><rect x="308.54" y="232.51999999999998" width="19" height="15.2" fill="#FF9800" fill-opacity="0.7" stroke="#FF9800" stroke-width="1"/><text x="318.04" y="240.11999999999998" font-size="4.75" fill="white" text-anchor="middle" dominant-baseline="middle">Trash</text><rect x="341.82" y="280.56" width="37.96" height="34.16" fill="#FF9800" fill-opacity="0.7" stroke="#FF9800" stroke-width="1"/><text x="360.8" y="297.64" font-size="9.49" fill="white" text-anchor="middle" dominant-baseline="middle">Bike Sto</text><text x="10" y="15" font-size="12" fill="white">Floor 1 (RESIDENTIAL_TYPICAL)</text></svg>