<svg xmlns="http://www.w3.org/2000/svg" width="543.88" height="664.48" viewBox="0 0 543.88 664.48"><rect width="100%" height="100%" fill="#1a1a2e"/><path d="M 20 383.88 L 348.56 644.48 L 439.92 518.04 L 367.72 464.08 L 401.6 427.08 L 380.96000000000004 410.12 L 523.88 215.84000000000003 L 279.32 20 Z" fill="none" stroke="#fff" stroke-width="2"/><rect x="157.96" y="417.86" width="40" height="32.28" fill="#9E9E9E" fill-opacity="0.7" stroke="#9E9E9E" stroke-width="1"/><text x="177.96" y="434" font-size="10" fill="white" text-anchor="middle" dominant-baseline="middle">Stair 1</text><rect x="186.08" y="378.94" width="40" height="32.28" fill="#9E9E9E" fill-opacity="0.7" stroke="#9E9E9E" stroke-width="1"/><text x="206.08" y="395.08" font-size="10" fill="white" text-anchor="middle" dominant-baseline="middle">Stair 2</text><rect x="214.2" y="340.02" width="40" height="32.28" fill="#9E9E9E" fill-opacity="0.7" stroke="#9E9E9E" stroke-width="1"/><text x="234.2" y="356.15999999999997" font-size="10" fill="white" text-anchor="middle" dominant-baseline="middle">Stair 3</text><rect x="244.24" y="305.84000000000003" width="30.56" height="30.56" fill="#9E9E9E" fill-opacity="0.7" stroke="#9E9E9E" stroke-width="1"/><text x="259.52" y="321.12" font-size="7.64" fill="white" text-anchor="middle" dominant-baseline="middle">Elevator</text><rect x="266.84000000000003" y="274.56" width="30.56" height="30.56" fill="#9E9E9E" fill-opacity="0.7" stroke="#9E9E9E" stroke-width="1"/><text x="282.12" y="289.84" font-size="7.64" fill="white" text-anchor="middle" dominant-baseline="middle">Elevator</text><rect x="289.4" y="243.32" width="30.56" height="30.56" fill="#9E9E9E" fill-opacity="0.7" stroke="#9E9E9E" stroke-width="1"/><text x="304.67999999999995" y="258.59999999999997" font-size="7.64" fill="white" text-anchor="middle" dominant-baseline="middle">Elevator</text><rect x="311.96000000000004" y="212.07999999999998" width="30.56" height="30.56" fill="#9E9E9E" fill-opacity="0.7" stroke="#9E9E9E" stroke-width="1"/><text x="327.24" y="227.35999999999999" font-size="7.64" fill="white" text-anchor="middle" dominant-baseline="middle">Elevator</text><rect x="334.56" y="180.84000000000003" width="30.56" height="30.56" fill="#9E9E9E" fill-opacity="0.7" stroke="#9E9E9E" stroke-width="1"/><text x="349.84" y="196.12000000000003" font-size="7.64" fill="white" text-anchor="middle" dominant-baseline="middle">Elevator</text><rect x="357.12" y="149.60000000000002" width="30.56" height="30.56" fill="#9E9E9E" fill-opacity="0.7" stroke="#9E9E9E" stroke-width="1"/><text x="372.4" y="164.88000000000002" font-size="7.64" fill="white" text-anchor="middle" dominant-baseline="middle">Elevator</text><text x="10" y="15" font-size="12" fill="white">Floor 0 (GROUND)</text></svg>